<?xml version="1.0" encoding="UTF-8"?>
<svg version="1.1" xmlns="http://www.w3.org/2000/svg" width="853" height="854">
<path d="M0 0 C281.49 0 562.98 0 853 0 C853 281.82 853 563.64 853 854 C571.51 854 290.02 854 0 854 C0 572.18 0 290.36 0 0 Z " fill="#FCDC50" transform="translate(0,0)"/>
<path d="M0 0 C0.60328125 0.57105469 1.2065625 1.14210938 1.828125 1.73046875 C2.82585937 2.63345703 2.82585937 2.63345703 3.84375 3.5546875 C14.52626765 14.25759164 18.03852846 29.79456428 21.14648438 44.10571289 C21.70869414 46.69360388 22.29374922 49.27552344 22.8828125 51.85742188 C23.25912249 53.53225829 23.63416894 55.20737921 24.0078125 56.8828125 C24.17755585 57.63924545 24.34729919 58.39567841 24.52218628 59.17503357 C27.02472613 70.74878039 29.86504895 86.15994892 23.55859375 96.890625 C16.07839505 106.62762331 3.67546623 108.69837758 -7.84469604 110.44656372 C-15.25888203 111.35105999 -22.77604875 111.2388261 -30.234375 111.29296875 C-62.93788144 111.59757381 -89.48424161 117.23110019 -113.921875 139.98046875 C-126.47671297 153.13097422 -134.6712242 171.61305891 -140.171875 188.73046875 C-140.831875 188.73046875 -141.491875 188.73046875 -142.171875 188.73046875 C-142.12546875 189.808125 -142.0790625 190.88578125 -142.03125 191.99609375 C-142.0362037 197.63835271 -143.25252869 202.98225987 -144.421875 208.48046875 C-144.76412109 210.14517212 -144.76412109 210.14517212 -145.11328125 211.84350586 C-145.9698925 216.00722279 -146.84150112 220.16765921 -147.72070312 224.32666016 C-150.43986824 237.21603599 -152.56050508 250.16857784 -154.50976562 263.19360352 C-154.61287552 263.87527084 -154.71598541 264.55693817 -154.82221985 265.25926208 C-155.10527171 267.13351427 -155.38417971 269.0083909 -155.6628418 270.88330078 C-156.171875 273.73046875 -156.171875 273.73046875 -157.171875 275.73046875 C-156.22941925 275.7215863 -155.2869635 275.71270386 -154.31594849 275.70355225 C-145.40114856 275.62219744 -136.48642471 275.56237492 -127.57133675 275.52322006 C-122.98880575 275.50241283 -118.40657627 275.47422188 -113.82421875 275.42871094 C-109.39566999 275.38500665 -104.96740986 275.36128011 -100.53866196 275.35095978 C-98.85548235 275.34361226 -97.17231717 275.32926497 -95.48926163 275.30754852 C-75.63435903 275.06172666 -75.63435903 275.06172666 -68.0798645 281.51849365 C-59.53254289 290.02499879 -57.8999025 302.24816034 -57.85058594 313.78686523 C-58.24321525 337.58073216 -65.21552523 367.17319713 -81.484375 385.13671875 C-91.64034219 394.72846554 -102.5550057 396.16772929 -115.92144394 396.14115906 C-118.3932103 396.13664265 -120.86427528 396.1507834 -123.33596802 396.16955566 C-129.46505308 396.21235195 -135.59411924 396.22361851 -141.72332764 396.23577881 C-146.92371897 396.24729645 -152.12378439 396.27079558 -157.32403946 396.31047058 C-159.75879808 396.32404996 -162.19311751 396.31987117 -164.62789917 396.31506348 C-166.11505704 396.32439945 -167.60220999 396.33456709 -169.08935547 396.34570312 C-170.38791473 396.34775757 -171.686474 396.34981201 -173.02438354 396.35192871 C-176.11928295 396.47363663 -176.11928295 396.47363663 -178.05705261 398.04751587 C-179.89327912 400.81951141 -180.2853709 403.94184118 -180.85546875 407.16015625 C-180.99574997 407.89777695 -181.13603119 408.63539764 -181.28056335 409.39537048 C-181.73461065 411.79680377 -182.17215197 414.20092063 -182.609375 416.60546875 C-182.92001123 418.26801879 -183.23170172 419.93037218 -183.54443359 421.5925293 C-184.15712882 424.85641132 -184.76394382 428.12129531 -185.36572266 431.38720703 C-186.00132535 434.82785858 -186.65935608 438.26320712 -187.33984375 441.6953125 C-189.63347611 453.27668421 -191.53275682 464.91385462 -193.38500977 476.57226562 C-194.44470891 483.24050723 -195.52998862 489.89920692 -196.734375 496.54296875 C-198.72979715 507.90819924 -200.41727626 519.32557695 -202.171875 530.73046875 C-256.621875 530.73046875 -311.071875 530.73046875 -367.171875 530.73046875 C-364.87461623 512.35239858 -364.87461623 512.35239858 -363.6472168 505.49560547 C-363.50865265 504.70265076 -363.3700885 503.90969604 -363.22732544 503.0927124 C-362.77884953 500.53121276 -362.32498641 497.97070103 -361.87109375 495.41015625 C-361.54924938 493.5768179 -361.22779118 491.74341173 -360.9066925 489.90994263 C-360.06532714 485.1107554 -359.21955909 480.31235566 -358.37255859 475.51416016 C-357.03074104 467.9088251 -355.69534162 460.30235955 -354.36026382 452.69583893 C-354.03508742 450.84405298 -353.70959638 448.99232226 -353.38378525 447.14064789 C-351.75634181 437.89044858 -350.14178996 428.63895572 -348.61181641 419.37207031 C-348.43452295 418.2988021 -348.43452295 418.2988021 -348.2536478 417.2038517 C-347.71195808 413.91657958 -347.17584906 410.62856194 -346.64616394 407.33932495 C-346.46362564 406.21946198 -346.28108734 405.099599 -346.09301758 403.94580078 C-345.93771072 402.97869171 -345.78240387 402.01158264 -345.62239075 401.01516724 C-345.171875 398.73046875 -345.171875 398.73046875 -344.171875 396.73046875 C-344.7723487 396.7280804 -345.3728224 396.72569204 -345.99149227 396.72323132 C-474.0937286 396.20568106 -474.0937286 396.20568106 -516.296875 394.48046875 C-517.41424482 394.43480459 -517.41424482 394.43480459 -518.55418777 394.38821793 C-526.41798723 394.06394341 -534.28068857 393.7166418 -542.14301205 393.35851192 C-556.41786815 392.70891713 -570.69528404 392.12372438 -584.97300005 391.54103851 C-590.47088713 391.31664281 -595.96875521 391.09178126 -601.4666245 390.86695004 C-602.84912084 390.81041879 -604.23161784 390.75390344 -605.61411548 390.69740391 C-615.71056592 390.28470991 -625.80677948 389.8666694 -635.90283203 389.44433594 C-637.17687393 389.39109098 -638.45091583 389.33784603 -639.76356506 389.28298759 C-644.63337894 389.0793992 -649.50319142 388.87578811 -654.37294769 388.67082596 C-670.97079876 387.9722764 -687.57017934 387.33085311 -704.171875 386.73046875 C-704.171875 385.74046875 -704.171875 384.75046875 -704.171875 383.73046875 C-701.86580025 382.57743137 -700.33749131 382.51876995 -697.76699829 382.37811279 C-696.83721664 382.32507555 -695.907435 382.27203831 -694.94947815 382.21739388 C-693.9228154 382.16337851 -692.89615265 382.10936314 -691.83837891 382.05371094 C-690.75514847 381.99322508 -689.67191803 381.93273922 -688.55586243 381.87042046 C-684.92027397 381.66850126 -681.28437141 381.47293616 -677.6484375 381.27734375 C-675.07528639 381.13574364 -672.50215647 380.99375792 -669.92904663 380.85140991 C-664.42386706 380.54773521 -658.91854977 380.24677645 -653.41308594 379.94830322 C-645.52161774 379.52047345 -637.63043284 379.08759524 -629.73930597 378.65352082 C-612.54758517 377.70807243 -595.35535801 376.7720093 -578.16298103 375.83857918 C-574.97547256 375.66550808 -571.78796873 375.49235148 -568.60046387 375.31921387 C-562.7754551 375.0028659 -556.95043536 374.68672079 -551.12540817 374.37071228 C-548.93742123 374.25201095 -546.74943547 374.13328771 -544.56145096 374.01454163 C-534.54752033 373.47108201 -524.53357571 372.92794978 -514.51929665 372.39094353 C-510.92511856 372.19807287 -507.33098881 372.00431098 -503.736866 371.81041336 C-502.10948699 371.72286161 -500.48208485 371.63573856 -498.85465622 371.54911423 C-491.2902859 371.1464499 -483.72726661 370.72343104 -476.16796875 370.23388672 C-475.03415771 370.16120575 -473.90034668 370.08852478 -472.73217773 370.01364136 C-470.24117574 370.00813226 -470.24117574 370.00813226 -469.171875 368.73046875 C-469.12072057 366.75903942 -469.12072057 366.75903942 -469.359375 364.48046875 C-469.41480469 363.7121875 -469.47023438 362.94390625 -469.52734375 362.15234375 C-470.41103467 358.83180818 -471.76516384 357.18711066 -474.171875 354.73046875 C-477.44833309 353.57543943 -477.44833309 353.57543943 -481.2265625 353.1015625 C-481.92514374 352.98856308 -482.62372498 352.87556366 -483.34347534 352.75914001 C-485.61698793 352.39628611 -487.89378549 352.06325096 -490.171875 351.73046875 C-491.70766259 351.49039227 -493.24314504 351.24835586 -494.77832031 351.00439453 C-498.78130962 350.37351709 -502.78755604 349.7668543 -506.79537964 349.1675415 C-521.63787257 346.9450335 -536.43368118 344.5743881 -551.171875 341.73046875 C-551.171875 341.07046875 -551.171875 340.41046875 -551.171875 339.73046875 C-542.70510249 338.94386195 -534.23797618 338.16122473 -525.77037811 337.38356018 C-521.83794849 337.02228193 -517.90565146 336.6596716 -513.97363281 336.29394531 C-510.17434693 335.94061542 -506.37474545 335.59087835 -502.5749054 335.24356079 C-501.13003396 335.11087192 -499.68527791 334.9769199 -498.24064636 334.84164429 C-491.20904602 334.18397915 -484.24133382 333.5402591 -477.171875 333.73046875 C-478.36186089 322.99457085 -478.36186089 322.99457085 -483.171875 313.73046875 C-484.6881277 313.42945609 -486.21578436 313.18563006 -487.74584961 312.96533203 C-488.73634811 312.82032761 -489.72684662 312.67532318 -490.74736023 312.52592468 C-491.84522354 312.36912735 -492.94308685 312.21233002 -494.07421875 312.05078125 C-496.46650612 311.70067691 -498.85875694 311.35032277 -501.25097656 310.99975586 C-502.53041138 310.81363739 -503.80984619 310.62751892 -505.12805176 310.4357605 C-530.10813287 306.7996864 -555.02762604 302.85026519 -579.921875 298.66796875 C-580.65979656 298.54407021 -581.39771812 298.42017166 -582.15800095 298.29251862 C-591.16401707 296.78003338 -600.16870604 295.25982054 -609.171875 293.73046875 C-608.841875 293.07046875 -608.511875 292.41046875 -608.171875 291.73046875 C-601.08553062 289.78596963 -593.9411597 289.04992081 -586.64453125 288.32421875 C-584.13815842 288.06534778 -581.6318118 287.806223 -579.12548828 287.546875 C-577.82170227 287.41361816 -576.51791626 287.28036133 -575.17462158 287.14306641 C-569.18097503 286.52818575 -563.19102833 285.87858742 -557.20081711 285.23126221 C-554.46575124 284.9358807 -551.73054725 284.64178955 -548.99534035 284.34771729 C-546.92079004 284.12467336 -544.84625773 283.9014627 -542.77172852 283.67822266 C-539.99506246 283.37947157 -537.21836853 283.08098145 -534.44165039 282.78271484 C-530.99084891 282.41202908 -527.54009292 282.04092269 -524.08937454 281.66946411 C-522.72943844 281.52310036 -521.3694913 281.37683912 -520.00953293 281.23068237 C-512.8795332 280.46409302 -505.75093227 279.68693787 -498.62548828 278.87890625 C-497.42553726 278.74327271 -496.22558624 278.60763916 -494.98927307 278.46789551 C-492.77636224 278.21681874 -490.56371483 277.96340159 -488.35142517 277.70690918 C-475.93723756 276.29869741 -463.59455286 275.58381942 -451.1015625 275.54101562 C-449.75949358 275.53304451 -448.4174271 275.52465447 -447.07536316 275.5158844 C-444.21798431 275.49803059 -441.36061008 275.48294608 -438.50320435 275.47010803 C-433.98053544 275.44965035 -429.45792642 275.42203934 -424.93530273 275.39343262 C-414.53166647 275.32867488 -404.12798643 275.27280261 -393.72429657 275.21744537 C-384.15768355 275.16650126 -374.59109283 275.11363143 -365.02453613 275.05291986 C-360.53199178 275.02467814 -356.03945446 275.00104741 -351.54686642 274.98099518 C-349.42814616 274.9708107 -347.30945248 274.95842535 -345.19075012 274.9450531 C-342.61287957 274.92879065 -340.03498413 274.91595873 -337.45707703 274.90724182 C-336.31632217 274.89889816 -335.17556732 274.8905545 -334.00024414 274.88195801 C-333.01367325 274.87680428 -332.02710236 274.87165054 -331.01063538 274.86634064 C-328.00043695 274.72226319 -325.13244451 274.28145673 -322.171875 273.73046875 C-322.00171875 272.56773437 -321.8315625 271.405 -321.65625 270.20703125 C-321.41178398 268.58979449 -321.16697295 266.97260986 -320.921875 265.35546875 C-320.75751953 264.22238281 -320.75751953 264.22238281 -320.58984375 263.06640625 C-319.61334466 256.69346485 -318.23687055 250.42989683 -316.8117981 244.14572144 C-315.44748324 238.0831396 -314.21028368 232.00198667 -313.0234375 225.90234375 C-312.84119629 224.97050262 -312.65895508 224.0386615 -312.47119141 223.07858276 C-311.72573637 219.26249489 -310.98197717 215.44614019 -310.25 211.62744141 C-306.77574469 193.54580374 -302.57403698 175.61193464 -296.421875 158.23046875 C-296.09171387 157.29307861 -295.76155273 156.35568848 -295.42138672 155.38989258 C-287.06432976 132.23283226 -275.6642307 110.61006278 -261.171875 90.73046875 C-260.7490625 90.1492627 -260.32625 89.56805664 -259.890625 88.96923828 C-251.41588761 77.41909814 -241.66195165 67.15317335 -231.609375 56.98046875 C-230.90603027 56.2639917 -230.20268555 55.54751465 -229.47802734 54.80932617 C-228.81883301 54.14908447 -228.15963867 53.48884277 -227.48046875 52.80859375 C-226.89064209 52.2146582 -226.30081543 51.62072266 -225.69311523 51.00878906 C-224.171875 49.73046875 -224.171875 49.73046875 -222.171875 49.73046875 C-222.171875 49.07046875 -222.171875 48.41046875 -222.171875 47.73046875 C-220.69067383 46.37353516 -220.69067383 46.37353516 -218.62890625 44.83203125 C-217.51225586 43.98898437 -217.51225586 43.98898437 -216.37304688 43.12890625 C-215.58478516 42.54367187 -214.79652344 41.9584375 -213.984375 41.35546875 C-212.4488969 40.20225133 -210.91373293 39.04861552 -209.37890625 37.89453125 C-208.27192383 37.06804077 -208.27192383 37.06804077 -207.14257812 36.22485352 C-205.62987614 35.07777115 -204.15227487 33.88428093 -202.69140625 32.671875 C-169.87341093 7.38421039 -127.39321125 -3.49475218 -87.171875 -9.26953125 C-85.97981445 -9.44742187 -85.97981445 -9.44742187 -84.76367188 -9.62890625 C-60.70785407 -13.11585827 -20.17593992 -17.16650351 0 0 Z " fill="#0078F6" transform="translate(768.171875,323.26953125)"/>
<path d="M0 0 C19.47 0 38.94 0 59 0 C59 152.79 59 305.58 59 463 C-35.71 463 -130.42 463 -228 463 C-227.34859716 454.53176305 -226.5806071 446.39493367 -225.1875 438.0625 C-224.92247681 436.4393689 -224.92247681 436.4393689 -224.65209961 434.78344727 C-223.38552169 427.10366016 -222.0000063 419.44912491 -220.56884766 411.79858398 C-219.18518859 404.28986518 -218.02309467 396.75283458 -216.87832642 389.20507812 C-214.85497009 375.87896285 -212.43048766 362.70013476 -209.53466797 349.53271484 C-209.02920916 347.13836338 -208.58071584 344.74258109 -208.16015625 342.33203125 C-208.03527832 341.63279541 -207.91040039 340.93355957 -207.78173828 340.21313477 C-207.46731065 338.42000525 -207.16838515 336.62417511 -206.87109375 334.828125 C-205.81515639 331.39987993 -204.83245716 330.19254863 -202 328 C-198.73898315 327.50793457 -198.73898315 327.50793457 -194.81982422 327.51757812 C-194.10378525 327.51366562 -193.38774628 327.50975311 -192.65000916 327.50572205 C-191.09769443 327.49975276 -189.5453237 327.50290687 -187.99303818 327.5141449 C-185.52802216 327.53143706 -183.06417618 327.52388117 -180.59915161 327.5098877 C-174.47291885 327.48026045 -168.34690966 327.49337376 -162.22064209 327.50506592 C-157.04912336 327.51330786 -151.87811555 327.50516108 -146.70666885 327.47593689 C-144.29254669 327.46889686 -141.8793506 327.48545703 -139.46530151 327.50305176 C-131.29936047 327.50144706 -124.32198588 326.99331088 -117 323 C-116.1956955 322.56546509 -115.39139099 322.13093018 -114.56271362 321.68322754 C-101.89655556 314.47086585 -95.76989963 299.41312365 -91.8125 286.0625 C-89.94851981 279.09384379 -88.39073623 272.07711927 -87 265 C-86.79246094 264.01515625 -86.58492187 263.0303125 -86.37109375 262.015625 C-83.57695123 247.55642594 -83.58210846 231.89475933 -90.84765625 218.6796875 C-94.60231639 213.20679306 -99.84718546 210.76538687 -106 209 C-108.73707997 208.71910489 -111.24759568 208.56196136 -113.9765625 208.56762695 C-114.72875565 208.5574353 -115.48094879 208.54724365 -116.25593567 208.53674316 C-118.71236843 208.50683964 -121.16840986 208.49738242 -123.625 208.48828125 C-125.33993808 208.47141769 -127.05486392 208.45326521 -128.76977539 208.43388367 C-133.26100847 208.38655942 -137.75219192 208.35663675 -142.24359131 208.33044434 C-146.83567093 208.30054971 -151.42757989 208.25405013 -156.01953125 208.20898438 C-165.01293123 208.12315147 -174.00636652 208.0557176 -183 208 C-180.03921627 187.17260689 -177.01023565 166.46700639 -172.36108398 145.93774414 C-170.49552388 137.64534832 -169.07319214 129.43152917 -168 121 C-167.34 121 -166.68 121 -166 121 C-165.83709473 120.32630371 -165.67418945 119.65260742 -165.50634766 118.95849609 C-163.76545876 112.13833572 -161.44829293 105.94967894 -158.375 99.625 C-157.93406006 98.71379395 -157.49312012 97.80258789 -157.03881836 96.86376953 C-145.61771446 73.78426135 -126.99520578 56.10948767 -102.30859375 47.75 C-86.24475362 43.19383262 -70.27226722 42.65721041 -53.69921875 42.61914062 C-37.85629394 42.5582999 -18.23881788 42.19539645 -5.3671875 31.6640625 C2.51195471 23.51477827 0 9.93827482 0 0 Z " fill="#FBD74B" transform="translate(794,391)"/>
<path d="M0 0 C2.59367008 1.1523252 4.90410437 1.76645969 7.69921875 2.19921875 C7.99481175 9.06354513 6.87437949 15.24818297 5.44921875 21.94921875 C5.22105469 23.059021 4.99289062 24.16882324 4.7578125 25.31225586 C3.90120125 29.47597279 3.02959263 33.63640921 2.15039062 37.79541016 C-0.56877449 50.68478599 -2.68941133 63.63732784 -4.63867188 76.66235352 C-4.79333672 77.68485451 -4.79333672 77.68485451 -4.9511261 78.72801208 C-5.23417796 80.60226427 -5.51308596 82.4771409 -5.79174805 84.35205078 C-6.30078125 87.19921875 -6.30078125 87.19921875 -7.30078125 89.19921875 C-6.3583255 89.1903363 -5.41586975 89.18145386 -4.44485474 89.17230225 C4.46994519 89.09094744 13.38466904 89.03112492 22.299757 88.99197006 C26.882288 88.97116283 31.46451748 88.94297188 36.046875 88.89746094 C40.47542376 88.85375665 44.90368389 88.83003011 49.33243179 88.81970978 C51.0156114 88.81236226 52.69877658 88.79801497 54.38183212 88.77629852 C74.23673472 88.53047666 74.23673472 88.53047666 81.79122925 94.98724365 C90.33855086 103.49374879 91.97119125 115.71691034 92.02050781 127.25561523 C91.6278785 151.04948216 84.65556852 180.64194713 68.38671875 198.60546875 C58.23075156 208.19721554 47.31608805 209.63647929 33.94964981 209.60990906 C31.47788345 209.60539265 29.00681847 209.6195334 26.53512573 209.63830566 C20.40604067 209.68110195 14.27697451 209.69236851 8.14776611 209.70452881 C2.94737478 209.71604645 -2.25269064 209.73954558 -7.45294571 209.77922058 C-9.88770433 209.79279996 -12.32202376 209.78862117 -14.75680542 209.78381348 C-16.24396329 209.79314945 -17.73111624 209.80331709 -19.21826172 209.81445312 C-20.51682098 209.81650757 -21.81538025 209.81856201 -23.15328979 209.82067871 C-26.2437336 209.94489816 -26.2437336 209.94489816 -28.18199158 211.49543762 C-30.1334139 214.4672174 -30.51107077 217.92369879 -31.125 221.3671875 C-31.27612747 222.16200027 -31.42725494 222.95681305 -31.58296204 223.77571106 C-32.06238482 226.31079511 -32.5255076 228.84854816 -32.98828125 231.38671875 C-33.31077882 233.10762276 -33.63433408 234.82832893 -33.95898438 236.54882812 C-34.75186751 240.76342877 -35.53014724 244.98049562 -36.30078125 249.19921875 C-69.63502965 256.50314794 -104.81559515 247.42910169 -133.48046875 230.0625 C-138.60368364 226.67777216 -143.45335667 222.96619328 -148.30078125 219.19921875 C-149.07421875 218.6578125 -149.84765625 218.11640625 -150.64453125 217.55859375 C-151.19109375 217.11 -151.73765625 216.66140625 -152.30078125 216.19921875 C-152.30078125 215.53921875 -152.30078125 214.87921875 -152.30078125 214.19921875 C-152.86152344 213.97234375 -153.42226563 213.74546875 -154 213.51171875 C-162.10911191 208.88580771 -168.35750196 198.8861363 -173.30078125 191.19921875 C-173.83960938 190.40257812 -174.3784375 189.6059375 -174.93359375 188.78515625 C-189.04753516 166.53108118 -195.56946068 140.67970611 -195.36328125 114.57421875 C-195.35876953 113.47464844 -195.35425781 112.37507812 -195.34960938 111.2421875 C-195.33795264 108.56113872 -195.32159142 105.88020943 -195.30078125 103.19921875 C-194.37740967 103.17939941 -193.45403809 103.15958008 -192.50268555 103.13916016 C-189.07516951 103.06104136 -185.64809327 102.97434878 -182.22094727 102.88183594 C-180.73795913 102.84356528 -179.25487877 102.80870897 -177.77172852 102.77734375 C-175.63915053 102.73165075 -173.50720634 102.67366537 -171.375 102.61328125 C-170.09197998 102.58186035 -168.80895996 102.55043945 -167.48706055 102.51806641 C-164.14690666 102.43542647 -164.14690666 102.43542647 -161.30078125 100.19921875 C-160.52968753 97.47147956 -159.95766125 94.87930583 -159.46484375 92.09765625 C-159.3011026 91.22853607 -159.13736145 90.35941589 -158.96865845 89.46395874 C-158.39503705 86.37865945 -157.84568363 83.28971832 -157.30078125 80.19921875 C-157.08901245 79.0038147 -156.87724365 77.80841064 -156.65905762 76.57678223 C-154.71319837 65.54743407 -152.81789586 54.50940389 -150.93164062 43.46972656 C-150.32796545 39.93819036 -149.71974071 36.40746152 -149.10878372 32.87717819 C-148.76962725 30.90917153 -148.43569987 28.94026598 -148.10189819 26.97134399 C-147.89473175 25.77504364 -147.68756531 24.57874329 -147.47412109 23.34619141 C-147.29521332 22.30065094 -147.11630554 21.25511047 -146.93197632 20.17788696 C-145.15404816 11.78767869 -145.15404816 11.78767869 -142.48828125 9.94921875 C-141.76640625 9.70171875 -141.04453125 9.45421875 -140.30078125 9.19921875 C-136.82428298 7.90894961 -133.81698778 6.37770933 -130.6875 4.39453125 C-125.34833114 1.1406511 -119.851471 -1.45707589 -114.11328125 -3.92578125 C-113.1080542 -4.35955078 -112.10282715 -4.79332031 -111.06713867 -5.24023438 C-103.27729983 -8.53015109 -95.61771845 -11.1605707 -87.30078125 -12.80078125 C-86.43114746 -12.97303223 -85.56151367 -13.1452832 -84.66552734 -13.32275391 C-55.60074928 -18.67440922 -26.2364129 -13.0667625 0 0 Z " fill="#0A87F5" transform="translate(618.30078125,509.80078125)"/>
<path d="M0 0 C15.40110848 12.95946933 24.32597462 32.13522808 26.625 51.9375 C26.7638211 53.62391927 26.88919276 55.31150866 27 57 C27.05414062 57.721875 27.10828125 58.44375 27.1640625 59.1875 C27.39009381 65.10541069 26.56510075 70.8507851 25.6875 76.6875 C25.56987305 77.49566162 25.45224609 78.30382324 25.33105469 79.13647461 C23.26090683 92.01401199 16.50696425 102.29154138 6 110 C-2.48300971 115 -2.48300971 115 -6 115 C-6.33 113.02 -6.66 111.04 -7 109 C-5.0862931 107.53763907 -3.16924767 106.08005754 -1.25 104.625 C-0.71117187 104.2125 -0.17234375 103.8 0.3828125 103.375 C2.61441933 101.68768752 4.71553561 100.13046126 7.265625 98.9609375 C9.55887358 97.69035383 10.00788097 96.38909381 11 94 C11.31839844 93.42121094 11.63679687 92.84242188 11.96484375 92.24609375 C20.07291517 77.16963966 20.1764397 58.54904171 15.97265625 42.1640625 C10.99754609 25.97996922 3.84472472 11.93330388 -11 3 C-18.70766857 -0.97230658 -28.23471226 -1.46530762 -36.58203125 0.65625 C-51.37078603 6.66499099 -59.91799272 19.08041652 -66.18994141 33.06835938 C-72.76707221 48.75198171 -73.90262297 71.53787956 -68.046875 87.6171875 C-67.09503972 89.78367824 -66.05966513 91.88508502 -65 94 C-64.67 94.969375 -64.34 95.93875 -64 96.9375 C-63.14654707 99.12416246 -63.14654707 99.12416246 -61.125 100.3125 C-58.73794466 101.20521352 -58.73794466 101.20521352 -55 101 C-52.18988978 92.25584992 -50.29532228 83.77256241 -49.21557617 74.6628418 C-48.35409488 68.2149909 -46.40591057 62.37637865 -41.0625 58.1875 C-34.84889482 53.74921059 -29.45914492 53.35046772 -22 54 C-16.22887356 55.08702724 -12.90607254 57.58419058 -9.2265625 62.0859375 C-2.84993335 72.03672821 -5.59266591 86.07642427 -7.8125 97.0625 C-14.20334421 125.89471543 -31.99024426 154.04140821 -50.87109375 176.46875 C-53.0531936 179.0632467 -55.15387152 181.71076193 -57.25 184.375 C-59.98926794 187.80857744 -62.80399318 190.9767503 -66 194 C-66.73863281 194.7528125 -67.47726562 195.505625 -68.23828125 196.28125 C-111.97552286 239.33799704 -176.56423667 266.6996443 -238.0546875 267.23828125 C-238.9858136 267.24812042 -239.9169397 267.25795959 -240.87628174 267.26809692 C-278.39058936 267.58269784 -313.98697364 263.42635779 -349 249 C-349.65226563 248.73783691 -350.30453125 248.47567383 -350.9765625 248.20556641 C-368.07391321 241.29654083 -385.04203137 232.8147813 -400 222 C-401.14472661 221.20023649 -402.29062826 220.40215306 -403.4375 219.60546875 C-424.08662649 205.18013201 -443.51457083 187.93842819 -459 168 C-459.50708496 167.35337402 -460.01416992 166.70674805 -460.53662109 166.04052734 C-470.71673788 153.04406107 -479.1889409 139.92906917 -486.765625 125.2578125 C-487.99923493 122.86988142 -489.25350918 120.59130529 -490.671875 118.3046875 C-494.04487001 112.45154909 -495.09700826 105.58980891 -496.5625 99.0625 C-496.78357422 98.09892578 -497.00464844 97.13535156 -497.23242188 96.14257812 C-500.11019348 83.42300153 -502.42528142 71.84119935 -495.3125 60.25 C-490.25991784 55.33397411 -484.0407462 52.92014277 -477 53 C-470.56068048 53.43004243 -466.53129197 55.63402949 -461.7265625 59.85546875 C-457.28330843 65.3743522 -456.39567442 71.49734935 -455.5 78.3125 C-454.53000109 85.08289642 -453.34012136 91.54392051 -451 98 C-448.58612691 98.15645735 -448.58612691 98.15645735 -446 98 C-437.02811387 89.84373988 -435.81918509 74.43539241 -434.7109375 63.0234375 C-434.30781829 50.89321403 -437.20703003 38.61219284 -443 28 C-443.44214844 27.16082031 -443.88429688 26.32164063 -444.33984375 25.45703125 C-450.61492641 14.24531847 -458.78759011 5.68241557 -470.82421875 0.87109375 C-480.0934956 -1.67140162 -490.48792953 -0.99024623 -499.125 3.2109375 C-513.16793512 11.9496118 -521.53366332 25.19093701 -526 41 C-526.26490234 41.91736938 -526.26490234 41.91736938 -526.53515625 42.85327148 C-528.30333802 49.69478686 -528.29660027 56.40474303 -528.25 63.4375 C-528.25773438 64.60087891 -528.26546875 65.76425781 -528.2734375 66.96289062 C-528.2474098 78.52569717 -527.02225495 89.45980682 -519.57421875 98.78515625 C-515.11864201 103.10806073 -509.70739716 104.81920233 -503.890625 106.7265625 C-500.76620639 108.10299556 -499.58141814 109.00421493 -498 112 C-498 113.32 -498 114.64 -498 116 C-510.13643161 115.21700441 -519.03192187 110.82928562 -527.6875 102.375 C-533.95757361 94.36205847 -535.99335479 84.25700369 -536.5625 74.375 C-536.6035083 73.66496826 -536.6445166 72.95493652 -536.68676758 72.22338867 C-537.94108738 49.27946438 -533.7368615 27.69345532 -519.1875 9.25 C-518.465625 8.5075 -517.74375 7.765 -517 7 C-516.34 7 -515.68 7 -515 7 C-515 6.34 -515 5.68 -515 5 C-502.95891424 -5.06013294 -490.64684422 -9.38659927 -474.95214844 -8.22753906 C-470.24178332 -7.67850701 -466.20220245 -6.12753017 -462 -4 C-461.13890625 -3.56429687 -460.2778125 -3.12859375 -459.390625 -2.6796875 C-443.35733365 6.21150134 -434.76738856 22.1922351 -429.75 39.3125 C-424.68872053 57.50406597 -424.88064475 79.11847814 -434 96 C-436.53365111 99.45801613 -439.26292842 102.70314519 -442.7109375 105.27734375 C-444.87687492 108.17182376 -444.40385392 110.49629437 -444 114 C-442.78492069 116.60538283 -441.60557838 118.80102338 -440.0625 121.1875 C-439.65644531 121.83750977 -439.25039063 122.48751953 -438.83203125 123.15722656 C-434.89422357 129.36474284 -430.55258057 135.23071206 -426 141 C-425.38511719 141.81984375 -424.77023437 142.6396875 -424.13671875 143.484375 C-418.93650502 150.19567288 -413.03918369 156.16966592 -407.0625 162.1875 C-406.22807373 163.03119141 -405.39364746 163.87488281 -404.53393555 164.74414062 C-396.54875309 172.6895337 -387.90301941 179.5439795 -378.6875 186 C-377.9560376 186.51272461 -377.2245752 187.02544922 -376.47094727 187.55371094 C-348.12673512 207.26873329 -316.05285168 220.29122352 -282 226 C-280.98583008 226.17789063 -280.98583008 226.17789063 -279.95117188 226.359375 C-227.35666595 235.27549709 -169.33241162 220.32633015 -126.05175781 189.61767578 C-121.71048874 186.42852152 -117.45742424 183.12393784 -113.38085938 179.60058594 C-109.19577916 176 -109.19577916 176 -107 176 C-107 175.34 -107 174.68 -107 174 C-105.53125 172.5546875 -105.53125 172.5546875 -103.5 170.875 C-95.80625164 164.73088433 -95.80625164 164.73088433 -90 157 C-89.34 157 -88.68 157 -88 157 C-87.72397949 156.40952881 -87.44795898 155.81905762 -87.16357422 155.21069336 C-86.05867739 153.11148211 -84.88375663 151.45714179 -83.3828125 149.62890625 C-77.01483911 141.69783994 -71.2874543 133.62340923 -66.1875 124.8125 C-65.66623535 123.92828369 -65.1449707 123.04406738 -64.60791016 122.13305664 C-62.06259567 117.62373296 -60.27435214 114.34181736 -61 109 C-61.86625 108.63068359 -61.86625 108.63068359 -62.75 108.25390625 C-69.91082362 104.26323892 -74.50967421 96.58885379 -77 89 C-81.35871734 71.36252695 -81.28518032 50.13785192 -75 33 C-74.56429688 31.78570312 -74.12859375 30.57140625 -73.6796875 29.3203125 C-67.50446721 13.62917897 -57.33518903 1.29305793 -41.88671875 -5.84765625 C-27.47366231 -11.60117675 -12.3996866 -9.37925012 0 0 Z " fill="#FCFBFA" transform="translate(684,76)"/>
<path d="M0 0 C15.00028676 9.27101056 25.16824059 25.25456602 29.2890625 42.22265625 C30.02075257 45.73913686 30.57986439 49.15295594 30.8125 52.73828125 C30.87695312 53.475625 30.94140625 54.21296875 31.0078125 54.97265625 C31.61207012 67.94405327 28.99021 85.35169378 20.328125 95.47265625 C18.18091138 97.26569031 16.51967514 96.95778194 13.8125 96.73828125 C11.42441002 92.38783321 10.15506447 88.485114 9.25 83.61328125 C9.06232056 82.63693726 9.06232056 82.63693726 8.87084961 81.64086914 C8.08692194 77.49985083 7.46869062 73.34723901 6.875 69.17578125 C5.90245326 63.23686876 3.81310609 59.79604751 -0.375 55.48828125 C-5.81670281 52.10233284 -11.90225042 51.09246509 -18.2109375 52.2109375 C-23.91226587 53.7320429 -27.85680826 55.69512331 -31.125 60.73828125 C-36.11382166 69.3968463 -34.42780096 79.15140743 -32.375 88.48828125 C-32.10151733 89.77883423 -32.10151733 89.77883423 -31.82250977 91.09545898 C-31.45500843 92.82663032 -31.08390741 94.55704191 -30.70898438 96.28662109 C-30.23113614 98.5331342 -29.78696189 100.78253121 -29.359375 103.0390625 C-29.11703125 104.28042969 -28.8746875 105.52179688 -28.625 106.80078125 C-28.41746094 107.88488281 -28.20992187 108.96898437 -27.99609375 110.0859375 C-27.11509974 112.97576808 -26.26146637 113.6656099 -24.1875 115.73828125 C-23.20776367 117.48071289 -23.20776367 117.48071289 -22.35546875 119.3984375 C-22.03529785 120.10444092 -21.71512695 120.81044434 -21.38525391 121.5378418 C-21.05187012 122.28461182 -20.71848633 123.03138184 -20.375 123.80078125 C-9.5982613 147.22068973 7.0104318 167.29315219 24.8125 185.73828125 C26.16214844 187.14980469 26.16214844 187.14980469 27.5390625 188.58984375 C33.26663773 194.4628812 39.36222381 199.6770282 45.8125 204.73828125 C46.82183594 205.54136719 47.83117187 206.34445312 48.87109375 207.171875 C66.22425429 220.85974344 84.87371229 231.7577408 104.97314453 240.89208984 C106.52305311 241.60512185 108.05834046 242.34981194 109.58984375 243.1015625 C153.79138733 264.53896199 211.81501659 270.56588478 259.8125 260.73828125 C260.70614258 260.56135742 261.59978516 260.38443359 262.52050781 260.20214844 C268.99898983 258.89379787 275.4093729 257.37327151 281.8125 255.73828125 C283.09906494 255.41585449 283.09906494 255.41585449 284.41162109 255.08691406 C325.09312999 244.74061889 364.08612487 224.66483399 393.8125 194.73828125 C394.85955522 193.84485716 395.91900456 192.96532591 397 192.11328125 C399.93130346 189.8610579 399.93130346 189.8610579 401.8125 186.73828125 C402.4725 186.73828125 403.1325 186.73828125 403.8125 186.73828125 C404.1528125 185.93003906 404.1528125 185.93003906 404.5 185.10546875 C406.21657335 182.00950611 408.4857474 179.5052481 410.8125 176.86328125 C425.37727528 159.92933447 436.86005412 140.68332408 446.8125 120.73828125 C447.37839844 119.62710938 447.94429687 118.5159375 448.52734375 117.37109375 C455.66848496 102.21661087 461.6475233 80.73203647 457.078125 64.05859375 C454.7394446 58.82531711 451.24869553 55.89837436 446.1875 53.48828125 C438.93549607 51.87672482 432.34318355 51.83480118 425.6640625 55.27734375 C420.14933813 59.62862416 418.22504566 63.32131019 417.1875 70.23828125 C416.95723912 71.65389227 416.72543692 73.06925333 416.4921875 74.484375 C416.38100586 75.19319824 416.26982422 75.90202148 416.15527344 76.63232422 C414.85763238 84.60486819 413.44267572 92.47792981 409.8125 99.73828125 C406.45803862 99.45075599 404.90396782 98.81190169 402.25 96.67578125 C391.72196267 83.98814651 391.91418906 66.41525595 392.8125 50.73828125 C394.72333983 32.01034098 403.19653578 15.33458454 417.59375 3.2421875 C426.02480378 -3.21523324 434.37140174 -4.32929172 444.8125 -3.26171875 C457.74571338 0.11894695 466.84401312 8.64532061 473.62890625 19.77734375 C483.3230528 36.70095179 487.28393643 58.31429075 482.8671875 77.47265625 C479.57547416 89.47165753 474.56243581 95.58496045 464.5546875 102.72265625 C463.64976562 103.3878125 462.74484375 104.05296875 461.8125 104.73828125 C461.19632813 105.1559375 460.58015625 105.57359375 459.9453125 106.00390625 C458.36768613 108.41930663 458.81985883 110.49742706 458.921875 113.29394531 C458.69281292 118.41307372 456.85522156 123.26138472 455.3125 128.11328125 C454.9522876 129.2621582 454.5920752 130.41103516 454.22094727 131.59472656 C451.09189266 141.33077216 447.29030024 150.55650616 442.8125 159.73828125 C442.20788057 161.01280615 441.60370267 162.28754061 441 163.5625 C428.79538412 188.9913236 409.14816691 214.33468143 386.8125 231.73828125 C386.1525 231.73828125 385.4925 231.73828125 384.8125 231.73828125 C384.8125 232.39828125 384.8125 233.05828125 384.8125 233.73828125 C382.43394541 235.70028694 380.04774624 237.54486288 377.5625 239.36328125 C376.82741211 239.90597656 376.09232422 240.44867188 375.33496094 241.0078125 C338.89970885 267.74287329 298.89226817 286.68646725 253.8125 292.73828125 C252.50869385 292.91488281 251.2048877 293.09148437 249.86157227 293.2734375 C238.06973009 294.77641981 226.37874685 295.1376968 214.5 295.11328125 C213.54294159 295.11306976 212.58588318 295.11285828 211.599823 295.11264038 C195.02832927 295.07629599 179.10829137 293.93801957 162.8125 290.73828125 C161.87051758 290.5563623 160.92853516 290.37444336 159.95800781 290.18701172 C122.70021941 282.73412198 87.25475365 266.34812098 56.8125 243.73828125 C54.98105253 242.42315102 53.14794126 241.11033184 51.3125 239.80078125 C39.91447368 231.4948602 39.91447368 231.4948602 34.8125 226.73828125 C34.8125 226.07828125 34.8125 225.41828125 34.8125 224.73828125 C34.25183838 224.50141602 33.69117676 224.26455078 33.11352539 224.02050781 C28.09260691 221.22264427 24.27570882 216.54341342 20.25 212.48828125 C19.75350952 211.99030029 19.25701904 211.49231934 18.7454834 210.97924805 C11.13305655 203.32553972 4.11735278 195.50931795 -2.1875 186.73828125 C-3.01329399 185.65057009 -3.8414607 184.56465663 -4.671875 183.48046875 C-15.1353823 169.61226595 -23.44618193 154.12881832 -29.1875 137.73828125 C-29.58710938 136.60777344 -29.98671875 135.47726563 -30.3984375 134.3125 C-32.39708698 128.28111451 -33.66818917 122.62382724 -34.01171875 116.2734375 C-34.06972656 115.43683594 -34.12773437 114.60023438 -34.1875 113.73828125 C-34.24164063 112.69800781 -34.29578125 111.65773438 -34.3515625 110.5859375 C-34.90403131 107.52563271 -34.90403131 107.52563271 -37.69921875 106.19921875 C-38.74722656 105.84085937 -39.79523438 105.4825 -40.875 105.11328125 C-49.54923051 101.869427 -56.1467461 97.74256355 -60.41796875 89.30859375 C-67.49306456 72.50204846 -66.74434678 48.61985297 -60.1875 31.73828125 C-54.15590478 17.55923987 -44.84856428 5.17193987 -30.6875 -1.63671875 C-20.82345305 -5.23330202 -9.39984629 -4.53389325 0 0 Z " fill="#988634" transform="translate(219.1875,78.26171875)"/>
<path d="M0 0 C25.66825278 9.32745992 48.58811204 22.39185481 70.54638672 38.52197266 C71.6649707 39.32103027 71.6649707 39.32103027 72.80615234 40.13623047 C73.54027344 40.66829102 74.27439453 41.20035156 75.03076172 41.74853516 C75.70333008 42.2314502 76.37589844 42.71436523 77.06884766 43.21191406 C77.55643555 43.6442334 78.04402344 44.07655273 78.54638672 44.52197266 C78.54638672 45.18197266 78.54638672 45.84197266 78.54638672 46.52197266 C79.12904297 46.77205078 79.71169922 47.02212891 80.31201172 47.27978516 C82.84531754 48.68816147 84.38157648 50.22849098 86.29638672 52.39697266 C87.21677734 53.41404297 87.21677734 53.41404297 88.15576172 54.45166016 C89.54638672 56.52197266 89.54638672 56.52197266 89.54638672 60.52197266 C88.39976562 60.58143066 88.39976562 60.58143066 87.22998047 60.64208984 C66.07388251 61.71664512 66.07388251 61.71664512 45.54638672 66.52197266 C44.40427734 66.89322266 43.26216797 67.26447266 42.08544922 67.64697266 C30.45003237 71.76954459 20.84759439 78.51173528 11.54638672 86.52197266 C10.85802734 87.11365234 10.16966797 87.70533203 9.46044922 88.31494141 C-4.28562765 101.05587036 -12.81819237 120.98517333 -18.45361328 138.52197266 C-24.00746823 138.87844602 -27.85714071 137.79633344 -32.76611328 135.39697266 C-64.49136668 120.80328156 -99.30582144 117.3094508 -132.61376953 129.40869141 C-133.55091797 129.77607422 -134.48806641 130.14345703 -135.45361328 130.52197266 C-137.09136719 131.15039062 -137.09136719 131.15039062 -138.76220703 131.79150391 C-146.07696964 134.75165867 -152.71975506 138.25934791 -159.39233398 142.45043945 C-162.65011724 144.49285154 -165.75335262 146.41894868 -169.45361328 147.52197266 C-170.44361328 147.19197266 -171.43361328 146.86197266 -172.45361328 146.52197266 C-162.43092184 97.70556963 -142.21610135 49.97921951 -106.90380859 14.00732422 C-105.44927258 12.51752672 -104.02472894 11.00309882 -102.60205078 9.48291016 C-94.98996773 1.4727676 -86.51427998 -5.17171978 -77.45361328 -11.47802734 C-76.60283203 -12.08646484 -75.75205078 -12.69490234 -74.87548828 -13.32177734 C-56.87493751 -21.91558868 -17.38440143 -6.04378178 0 0 Z " fill="#006FF6" transform="translate(646.45361328125,373.47802734375)"/>
<path d="M0 0 C0.60328125 0.57105469 1.2065625 1.14210938 1.828125 1.73046875 C2.82585937 2.63345703 2.82585937 2.63345703 3.84375 3.5546875 C14.52626765 14.25759164 18.03852846 29.79456428 21.14648438 44.10571289 C21.70869414 46.69360388 22.29374922 49.27552344 22.8828125 51.85742188 C23.25912249 53.53225829 23.63416894 55.20737921 24.0078125 56.8828125 C24.17755585 57.63924545 24.34729919 58.39567841 24.52218628 59.17503357 C27.02472613 70.74878039 29.86504895 86.15994892 23.55859375 96.890625 C16.61394801 105.93049233 5.22978986 108.53145308 -5.5703125 110.23828125 C-14.36267441 111.35945492 -23.33104334 110.96884848 -32.171875 110.73046875 C-32.58050781 109.65410156 -32.98914063 108.57773437 -33.41015625 107.46875 C-34.84873745 104.11036908 -36.44277008 102.18643924 -39.359375 99.91796875 C-40.66083651 98.89321437 -41.94076906 97.83875652 -43.171875 96.73046875 C-43.171875 96.07046875 -43.171875 95.41046875 -43.171875 94.73046875 C-43.69910156 94.49972656 -44.22632813 94.26898438 -44.76953125 94.03125 C-47.29361578 92.66455057 -49.50844393 91.04061151 -51.78881836 89.30395508 C-66.51461035 78.09323748 -82.37374402 68.48977012 -99.171875 60.73046875 C-99.79803711 60.43479004 -100.42419922 60.13911133 -101.06933594 59.83447266 C-124.90018687 48.62677343 -150.46528417 41.84921731 -176.46923828 38.12939453 C-178.84807487 37.77826364 -181.20778734 37.370085 -183.57421875 36.9453125 C-190.57118509 35.97050295 -195.11366296 36.48411888 -200.921875 40.60546875 C-203.06254191 42.25643642 -205.10804792 43.98006715 -207.171875 45.73046875 C-208.06003906 46.40464844 -208.94820312 47.07882812 -209.86328125 47.7734375 C-230.29457166 63.51557929 -245.5321903 84.08606521 -259.171875 105.73046875 C-259.5735791 106.36710449 -259.9752832 107.00374023 -260.38916016 107.65966797 C-282.60245004 143.48297526 -292.15398337 185.84611749 -299.1796875 226.8515625 C-299.30703403 227.59459499 -299.43438057 228.33762749 -299.56558609 229.10317612 C-300.75086957 236.03049232 -301.92464066 242.95974784 -303.09326172 249.88989258 C-303.74144482 253.73114378 -304.39656903 257.5711616 -305.0557518 261.41053963 C-305.30162699 262.85121024 -305.54484115 264.29233798 -305.78516006 265.73394585 C-308.28379499 280.72141016 -308.28379499 280.72141016 -311.171875 287.73046875 C-314.3179414 289.82784635 -315.02897557 289.9806797 -318.61156559 289.98215103 C-319.52547158 289.98736653 -320.43937758 289.99258202 -321.38097769 289.99795556 C-322.8891298 289.9912634 -322.8891298 289.9912634 -324.42774963 289.98443604 C-326.0281886 289.98911601 -326.0281886 289.98911601 -327.66095966 289.99389052 C-331.25392757 290.00189949 -334.84672795 289.99553557 -338.43969727 289.98925781 C-341.00829162 289.99196637 -343.5768852 289.99552653 -346.14547729 289.99987793 C-352.40827009 290.00878325 -358.67101502 290.00684496 -364.93380971 290.00105265 C-370.02192163 289.99654104 -375.11002012 289.99592108 -380.19813347 289.99810028 C-380.92151884 289.99840675 -381.6449042 289.99871321 -382.39021034 289.99902897 C-383.85961128 289.9996684 -385.32901222 290.00031682 -386.79841315 290.00097415 C-400.58499717 290.00668067 -414.37155461 290.00011429 -428.15813427 289.98937342 C-439.99695634 289.98043572 -451.83573919 289.98199112 -463.67456055 289.99121094 C-477.41241618 290.00190462 -491.15024851 290.00613332 -504.88810772 289.99998641 C-506.35188257 289.99934929 -507.81565743 289.99872055 -509.2794323 289.99810028 C-509.99969869 289.99779173 -510.71996508 289.99748318 -511.46205773 289.99716528 C-516.54670243 289.99543577 -521.63133239 289.9983589 -526.71597481 290.00305939 C-533.55393186 290.00924161 -540.39181335 290.00486472 -547.22976303 289.99327087 C-549.74612619 289.990616 -552.26249556 289.99140337 -554.77885628 289.9957962 C-558.20031805 290.00122047 -561.62153787 289.99445561 -565.04298401 289.98443604 C-566.5544822 289.9911282 -566.5544822 289.9911282 -568.09651572 289.99795556 C-569.00781396 289.99274007 -569.91911221 289.98752457 -570.85802555 289.98215103 C-571.64849594 289.98182633 -572.43896633 289.98150162 -573.25339037 289.98116708 C-575.171875 289.73046875 -575.171875 289.73046875 -577.171875 287.73046875 C-561.19772346 285.67092568 -545.20927553 283.80910083 -529.19335938 282.10546875 C-525.701477 281.73362104 -522.21010032 281.35727553 -518.71875 280.98046875 C-512.84086343 280.34889505 -506.96085414 279.74012692 -501.08005905 279.13633347 C-498.56281769 278.87491808 -496.04608393 278.60854326 -493.53001785 278.33604813 C-473.78524218 276.20103424 -454.31048191 275.26989348 -434.46057272 275.25728941 C-430.72521612 275.25146982 -426.98996314 275.22811 -423.25466919 275.20669556 C-416.23282793 275.16876572 -409.21101793 275.14416781 -402.18910134 275.12557089 C-389.55682223 275.09166183 -376.92463601 275.0341768 -364.2924701 274.97157919 C-359.87517107 274.95023019 -355.45790477 274.9348844 -351.04056621 274.9247396 C-348.96619721 274.91940327 -346.89184849 274.91193419 -344.81748962 274.90357971 C-342.29738045 274.89362107 -339.77725376 274.88719736 -337.25712585 274.88502502 C-336.14238388 274.87957169 -335.02764191 274.87411835 -333.87911987 274.86849976 C-332.43433164 274.86466561 -332.43433164 274.86466561 -330.96035576 274.86075401 C-327.96730961 274.72091091 -325.11549138 274.27766934 -322.171875 273.73046875 C-322.00171875 272.56773437 -321.8315625 271.405 -321.65625 270.20703125 C-321.41178398 268.58979449 -321.16697295 266.97260986 -320.921875 265.35546875 C-320.75751953 264.22238281 -320.75751953 264.22238281 -320.58984375 263.06640625 C-319.61334466 256.69346485 -318.23687055 250.42989683 -316.8117981 244.14572144 C-315.44748324 238.0831396 -314.21028368 232.00198667 -313.0234375 225.90234375 C-312.84119629 224.97050262 -312.65895508 224.0386615 -312.47119141 223.07858276 C-311.72573637 219.26249489 -310.98197717 215.44614019 -310.25 211.62744141 C-306.77574469 193.54580374 -302.57403698 175.61193464 -296.421875 158.23046875 C-296.09171387 157.29307861 -295.76155273 156.35568848 -295.42138672 155.38989258 C-287.06432976 132.23283226 -275.6642307 110.61006278 -261.171875 90.73046875 C-260.7490625 90.1492627 -260.32625 89.56805664 -259.890625 88.96923828 C-251.41588761 77.41909814 -241.66195165 67.15317335 -231.609375 56.98046875 C-230.90603027 56.2639917 -230.20268555 55.54751465 -229.47802734 54.80932617 C-228.81883301 54.14908447 -228.15963867 53.48884277 -227.48046875 52.80859375 C-226.89064209 52.2146582 -226.30081543 51.62072266 -225.69311523 51.00878906 C-224.171875 49.73046875 -224.171875 49.73046875 -222.171875 49.73046875 C-222.171875 49.07046875 -222.171875 48.41046875 -222.171875 47.73046875 C-220.69067383 46.37353516 -220.69067383 46.37353516 -218.62890625 44.83203125 C-217.51225586 43.98898437 -217.51225586 43.98898437 -216.37304688 43.12890625 C-215.58478516 42.54367187 -214.79652344 41.9584375 -213.984375 41.35546875 C-212.4488969 40.20225133 -210.91373293 39.04861552 -209.37890625 37.89453125 C-208.27192383 37.06804077 -208.27192383 37.06804077 -207.14257812 36.22485352 C-205.62987614 35.07777115 -204.15227487 33.88428093 -202.69140625 32.671875 C-169.87341093 7.38421039 -127.39321125 -3.49475218 -87.171875 -9.26953125 C-86.37716797 -9.388125 -85.58246094 -9.50671875 -84.76367188 -9.62890625 C-60.70785407 -13.11585827 -20.17593992 -17.16650351 0 0 Z " fill="#0060F6" transform="translate(768.171875,323.26953125)"/>
<path d="M0 0 C3.02966762 0.67923693 5.88646363 0.65388237 8.9920845 0.67050266 C9.66520479 0.67544064 10.33832508 0.68037862 11.03184295 0.68546623 C13.28581994 0.70081607 15.53976851 0.70919501 17.79378128 0.71760654 C19.41011683 0.72718705 21.02644987 0.73719723 22.6427803 0.74760532 C27.03081727 0.77464179 31.41886498 0.79565818 35.80693913 0.81560731 C40.39272202 0.8374746 44.97847184 0.86485966 49.56422806 0.89166355 C58.24807194 0.94158037 66.93193418 0.98652296 75.61581397 1.02968591 C85.5020766 1.07906691 95.38830606 1.13398185 105.27453661 1.18936551 C125.61132424 1.30317004 145.94814354 1.41001243 166.28499222 1.51228428 C166.30873917 2.36281376 166.33248611 3.21334324 166.35695267 4.08964634 C166.44880094 7.29940279 166.54484723 10.50900089 166.64357376 13.71855259 C166.68516717 15.09753254 166.72517297 16.47656147 166.76344681 17.85563755 C167.51993009 44.96952613 172.93337592 70.23450428 184.38606644 94.88191319 C184.9219136 96.03892735 184.9219136 96.03892735 185.46858597 97.21931553 C185.79270462 97.90098789 186.11682327 98.58266026 186.4507637 99.28498936 C187.46462187 101.99187496 187.83881782 104.66226188 188.28499222 107.51228428 C146.83406949 107.81994483 105.39816504 107.98010774 63.97249222 106.32478428 C63.18905819 106.29348549 62.40562416 106.2621867 61.59844971 106.22993946 C52.2185393 105.85247307 42.83979496 105.44922096 33.46126175 105.03913975 C19.74177076 104.4394916 6.02065061 103.87972723 -7.70046496 103.31875777 C-13.86052119 103.0668579 -20.02055428 102.81439303 -26.18058395 102.56184483 C-26.86119845 102.53394922 -27.54181295 102.50605361 -28.24305212 102.47731268 C-38.30721184 102.0647026 -48.3711614 101.64729149 -58.43497849 101.22639561 C-59.70971433 101.17313523 -60.98445017 101.11987486 -62.29781437 101.06500053 C-68.29055558 100.81455026 -74.28326893 100.56346464 -80.27593613 100.31124973 C-95.75389397 99.66245611 -111.23358401 99.07215508 -126.71500778 98.51228428 C-126.71500778 97.52228428 -126.71500778 96.53228428 -126.71500778 95.51228428 C-124.40893303 94.3592469 -122.88062409 94.30058548 -120.31013107 94.15992832 C-118.9154586 94.08037246 -118.9154586 94.08037246 -117.49261093 93.9992094 C-116.46594818 93.94519403 -115.43928543 93.89117867 -114.38151169 93.83552647 C-112.75666603 93.74479768 -112.75666603 93.74479768 -111.09899521 93.65223598 C-107.46340675 93.45031678 -103.8275042 93.25475169 -100.19157028 93.05915928 C-97.61841917 92.91755917 -95.04528926 92.77557345 -92.47217941 92.63322544 C-86.96699984 92.32955074 -81.46168256 92.02859198 -75.95621872 91.73011875 C-68.06475052 91.30228897 -60.17356562 90.86941077 -52.28243876 90.43533635 C-35.09071795 89.48988796 -17.89849079 88.55382483 -0.70611382 87.62039471 C2.48139466 87.44732361 5.66889849 87.27416701 8.85640335 87.1010294 C14.68141211 86.78468143 20.50643186 86.46853632 26.33145905 86.15252781 C28.51944599 86.03382648 30.70743174 85.91510324 32.89541626 85.79635715 C42.90934688 85.25289753 52.92329151 84.70976531 62.93757057 84.17275906 C66.53174866 83.9798884 70.1258784 83.78612651 73.72000122 83.59222889 C75.34738022 83.50467714 76.97478237 83.41755408 78.602211 83.33092976 C86.16658132 82.92826543 93.72960061 82.50524657 101.28889847 82.01570225 C102.4227095 81.94302128 103.55652054 81.87034031 104.72468948 81.79545689 C107.21569148 81.78994778 107.21569148 81.78994778 108.28499222 80.51228428 C108.33614665 78.54085495 108.33614665 78.54085495 108.09749222 76.26228428 C108.04206253 75.49400303 107.98663284 74.72572178 107.92952347 73.93415928 C107.04583255 70.61362371 105.69170338 68.96892619 103.28499222 66.51228428 C100.00853413 65.35725496 100.00853413 65.35725496 96.23030472 64.88337803 C95.53172348 64.77037861 94.83314224 64.65737919 94.11339188 64.54095554 C91.83987929 64.17810164 89.56308173 63.84506648 87.28499222 63.51228428 C85.74920463 63.27220779 84.21372218 63.03017139 82.67854691 62.78621006 C78.67555759 62.15533262 74.66931118 61.54866983 70.66148758 60.94935703 C55.81899465 58.72684903 41.02318604 56.35620363 26.28499222 53.51228428 C26.28499222 52.85228428 26.28499222 52.19228428 26.28499222 51.51228428 C34.75176473 50.72567748 43.21889104 49.94304026 51.68648911 49.16537571 C55.61891873 48.80409746 59.55121576 48.44148713 63.48323441 48.07576084 C67.28252029 47.72243095 71.08212177 47.37269388 74.88196182 47.02537632 C76.32683326 46.89268744 77.77158931 46.75873543 79.21622086 46.62345982 C86.24782119 45.96579468 93.2155334 45.32207462 100.28499222 45.51228428 C99.09500633 34.77638638 99.09500633 34.77638638 94.28499222 25.51228428 C92.76873952 25.21127162 91.24108286 24.96744559 89.71101761 24.74714756 C88.7205191 24.60214314 87.7300206 24.45713871 86.70950699 24.30774021 C85.61164368 24.15094288 84.51378036 23.99414555 83.38264847 23.83259678 C80.9903611 23.48249243 78.59811028 23.1321383 76.20589066 22.78157139 C74.28673843 22.50239368 74.28673843 22.50239368 72.32881546 22.21757603 C47.34873435 18.58150193 22.42924118 14.63208072 -2.46500778 10.44978428 C-3.20292934 10.32588573 -3.94085091 10.20198719 -4.70113373 10.07433414 C-13.70714986 8.56184891 -22.71183882 7.04163607 -31.71500778 5.51228428 C-30.71500778 3.51228428 -30.71500778 3.51228428 -29.01115036 2.92121983 C-23.16311041 1.70698902 -17.34627629 0.89912595 -11.40250778 0.32478428 C-10.52272263 0.23003819 -9.64293747 0.13529209 -8.73649216 0.0376749 C-7.8876445 -0.04675869 -7.03879684 -0.13119228 -6.16422653 -0.21818447 C-5.40456589 -0.29448086 -4.64490524 -0.37077724 -3.86222458 -0.44938564 C-1.71500778 -0.48771572 -1.71500778 -0.48771572 0 0 Z " fill="#0063F6" transform="translate(190.71500778198242,611.4877157211304)"/>
<path d="M0 0 C2.58263997 3.87395996 1.9955637 5.37589368 1.375 9.9375 C1.2349353 10.97583984 1.2349353 10.97583984 1.09204102 12.03515625 C0.13771087 18.73989929 -1.18944829 25.37178184 -2.59033203 31.99584961 C-3.64275558 36.99612762 -4.51405515 41.91010339 -5 47 C-5.16290527 48.12233032 -5.16290527 48.12233032 -5.32910156 49.26733398 C-5.64481788 52.69588345 -5.76957189 55.0014243 -3.61181641 57.80126953 C-1.59986437 59.56257964 0.47126338 61.06654028 2.6875 62.5625 C3.85345703 63.3963623 3.85345703 63.3963623 5.04296875 64.24707031 C7.33844853 65.86957432 9.65984182 67.44282513 12 69 C12.59635254 69.40138184 13.19270508 69.80276367 13.80712891 70.21630859 C17.45083335 72.6399491 21.1915921 74.84664787 25 77 C25.92619141 77.53270508 25.92619141 77.53270508 26.87109375 78.07617188 C60.49595648 97.28562316 97.75109371 103.08048187 136 104 C135.43431265 114.8650985 133.71105137 125.16334132 132 136 C77.55 136 23.1 136 -33 136 C-30.70274123 117.62192983 -30.70274123 117.62192983 -29.4753418 110.76513672 C-29.33677765 109.97218201 -29.1982135 109.17922729 -29.05545044 108.36224365 C-28.60697453 105.80074401 -28.15311141 103.24023228 -27.69921875 100.6796875 C-27.37737438 98.84634915 -27.05591618 97.01294298 -26.7348175 95.17947388 C-25.89345214 90.38028665 -25.04768409 85.58188691 -24.20068359 80.78369141 C-22.8588844 73.17846041 -21.52365677 65.57207293 -20.18866348 57.96564484 C-19.70242158 55.19791827 -19.21465662 52.43046304 -18.72677612 49.6630249 C-17.26280181 41.34151931 -15.82302359 33.0179245 -14.47509766 24.67675781 C-14.35926866 23.96361231 -14.24343966 23.2504668 -14.12410069 22.51571083 C-13.59348708 19.2441209 -13.07097532 15.97183704 -12.56217957 12.69674683 C-12.38286392 11.58010651 -12.20354828 10.46346619 -12.01879883 9.31298828 C-11.86872879 8.35111603 -11.71865875 7.38924377 -11.56404114 6.39822388 C-11 4 -11 4 -9 1 C-6.03978327 -0.12284083 -3.14008766 -0.33053554 0 0 Z " fill="#0068F6" transform="translate(434,718)"/>
<path d="M0 0 C10.29168819 9.09582301 16.09880367 22.0354446 17.2109375 35.56640625 C17.73315297 49.36494578 13.62511814 61.03108263 5.75 72.1875 C5.1725 72.785625 4.595 73.38375 4 74 C3.34 74 2.68 74 2 74 C1.505 75.485 1.505 75.485 1 77 C-11.86192149 87.57917588 -26.94170222 89.54400212 -43 88 C-52.76010895 86.29777254 -63.4392345 81.73998806 -70 74 C-70 73.34 -70 72.68 -70 72 C-70.66 72 -71.32 72 -72 72 C-81.50224466 59.48418632 -84.51179452 44.37046471 -83 29 C-81.31831003 19.71741501 -77.48291853 11.85934605 -71 5 C-70.43152344 4.36578125 -69.86304688 3.7315625 -69.27734375 3.078125 C-50.83891929 -16.5783275 -20.56435891 -15.93103113 0 0 Z " fill="#0D94F5" transform="translate(588,595)"/>
<path d="M0 0 C-3.52231679 1.7611584 -7.77086487 -0.40438248 -11.44335938 -1.44140625 C-22.76223027 -4.47843916 -34.42927448 -4.20392853 -46.0625 -4.1875 C-46.85346069 -4.18689575 -47.64442139 -4.1862915 -48.45935059 -4.18566895 C-79.91694495 -4.12078182 -109.92530546 -0.45951374 -140 9 C-141.27351318 9.39977051 -141.27351318 9.39977051 -142.57275391 9.80761719 C-161.67011963 15.96108413 -179.51747401 25.30180546 -195.28808594 37.68847656 C-197.60444905 39.46307762 -200.0006953 41.10931311 -202.40283203 42.76489258 C-209.87189594 47.93397525 -216.47338502 53.69628853 -223 60 C-223.90234375 60.83917969 -224.8046875 61.67835938 -225.734375 62.54296875 C-238.95623504 75.17252003 -249.29016561 90.59175717 -259 106 C-259.4017041 106.63663574 -259.8034082 107.27327148 -260.21728516 107.92919922 C-282.43057504 143.75250651 -291.98210837 186.11564874 -299.0078125 227.12109375 C-299.13515903 227.86412624 -299.26250557 228.60715874 -299.39371109 229.37270737 C-300.57899457 236.30002357 -301.75276566 243.22927909 -302.92138672 250.15942383 C-303.56956982 254.00067503 -304.22469403 257.84069285 -304.8838768 261.68007088 C-305.12975199 263.12074149 -305.37296615 264.56186923 -305.61328506 266.0034771 C-308.11191999 280.99094141 -308.11191999 280.99094141 -311 288 C-314.1460664 290.0973776 -314.85710057 290.25021095 -318.43969059 290.25168228 C-319.35359658 290.25689778 -320.26750258 290.26211327 -321.20910269 290.26748681 C-322.7172548 290.26079465 -322.7172548 290.26079465 -324.25587463 290.25396729 C-325.8563136 290.25864726 -325.8563136 290.25864726 -327.48908466 290.26342177 C-331.08205257 290.27143074 -334.67485295 290.26506682 -338.26782227 290.25878906 C-340.83641662 290.26149762 -343.4050102 290.26505778 -345.97360229 290.26940918 C-352.23639509 290.2783145 -358.49914002 290.27637621 -364.76193471 290.2705839 C-369.85004663 290.26607229 -374.93814512 290.26545233 -380.02625847 290.26763153 C-380.74964384 290.267938 -381.4730292 290.26824446 -382.21833534 290.26856022 C-383.68773628 290.26919965 -385.15713722 290.26984807 -386.62653815 290.2705054 C-400.41312217 290.27621192 -414.19967961 290.26964554 -427.98625927 290.25890467 C-439.82508134 290.24996697 -451.66386419 290.25152237 -463.50268555 290.26074219 C-477.24054118 290.27143587 -490.97837351 290.27566457 -504.71623272 290.26951766 C-506.18000757 290.26888054 -507.64378243 290.2682518 -509.1075573 290.26763153 C-509.82782369 290.26732298 -510.54809008 290.26701443 -511.29018273 290.26669653 C-516.37482743 290.26496702 -521.45945739 290.26789015 -526.54409981 290.27259064 C-533.38205686 290.27877286 -540.21993835 290.27439597 -547.05788803 290.26280212 C-549.57425119 290.26014725 -552.09062056 290.26093462 -554.60698128 290.26532745 C-558.02844305 290.27075172 -561.44966287 290.26398686 -564.87110901 290.25396729 C-566.3826072 290.26065945 -566.3826072 290.26065945 -567.92464072 290.26748681 C-568.83593896 290.26227132 -569.74723721 290.25705582 -570.68615055 290.25168228 C-571.47662094 290.25135758 -572.26709133 290.25103287 -573.08151537 290.25069833 C-575 290 -575 290 -577 288 C-561.02584846 285.94045693 -545.03740053 284.07863208 -529.02148438 282.375 C-525.529602 282.00315229 -522.03822532 281.62680678 -518.546875 281.25 C-512.66898843 280.6184263 -506.78897914 280.00965817 -500.90818405 279.40586472 C-498.39094269 279.14444933 -495.87420893 278.87807451 -493.35814285 278.60557938 C-473.61336718 276.47056549 -454.13860691 275.53942473 -434.28869772 275.52682066 C-430.55334112 275.52100107 -426.81808814 275.49764125 -423.08279419 275.47622681 C-416.06095293 275.43829697 -409.03914293 275.41369906 -402.01722634 275.39510214 C-389.38494723 275.36119308 -376.75276101 275.30370805 -364.1205951 275.24111044 C-359.70329607 275.21976144 -355.28602977 275.20441565 -350.86869121 275.19427085 C-348.79432221 275.18893452 -346.71997349 275.18146544 -344.64561462 275.17311096 C-342.12550545 275.16315232 -339.60537876 275.15672861 -337.08525085 275.15455627 C-335.97050888 275.14910294 -334.85576691 275.1436496 -333.70724487 275.13803101 C-332.26245664 275.13419686 -332.26245664 275.13419686 -330.78848076 275.13028526 C-327.79543461 274.99044216 -324.94361638 274.54720059 -322 274 C-321.82984375 272.83726562 -321.6596875 271.67453125 -321.484375 270.4765625 C-321.23990898 268.85932574 -320.99509795 267.24214111 -320.75 265.625 C-320.58564453 264.49191406 -320.58564453 264.49191406 -320.41796875 263.3359375 C-319.44146966 256.9629961 -318.06499555 250.69942808 -316.6399231 244.41525269 C-315.27560824 238.35267085 -314.03840868 232.27151792 -312.8515625 226.171875 C-312.66932129 225.24003387 -312.48708008 224.30819275 -312.29931641 223.34811401 C-311.55386137 219.53202614 -310.81010217 215.71567144 -310.078125 211.89697266 C-306.60386969 193.81533499 -302.40216198 175.88146589 -296.25 158.5 C-295.91983887 157.56260986 -295.58967773 156.62521973 -295.24951172 155.65942383 C-286.89245476 132.50236351 -275.4923557 110.87959403 -261 91 C-260.5771875 90.41879395 -260.154375 89.83758789 -259.71875 89.23876953 C-251.24401261 77.68862939 -241.49007665 67.4227046 -231.4375 57.25 C-230.73415527 56.53352295 -230.03081055 55.8170459 -229.30615234 55.07885742 C-228.64695801 54.41861572 -227.98776367 53.75837402 -227.30859375 53.078125 C-226.71876709 52.48418945 -226.12894043 51.89025391 -225.52124023 51.27832031 C-224 50 -224 50 -222 50 C-222 49.34 -222 48.68 -222 48 C-220.51879883 46.64306641 -220.51879883 46.64306641 -218.45703125 45.1015625 C-217.34038086 44.25851562 -217.34038086 44.25851562 -216.20117188 43.3984375 C-215.41291016 42.81320312 -214.62464844 42.22796875 -213.8125 41.625 C-212.2770219 40.47178258 -210.74185793 39.31814677 -209.20703125 38.1640625 C-208.10004883 37.33757202 -208.10004883 37.33757202 -206.97070312 36.49438477 C-205.45800114 35.3473024 -203.98039987 34.15381218 -202.51953125 32.94140625 C-169.70153593 7.65374164 -127.22133625 -3.22522093 -87 -9 C-86.20529297 -9.11859375 -85.41058594 -9.2371875 -84.59179688 -9.359375 C-60.20706109 -12.89400452 -20.79383918 -16.63507134 0 0 Z " fill="#0C4D9C" transform="translate(768,323)"/>
<path d="M0 0 C15.00028676 9.27101056 25.16824059 25.25456602 29.2890625 42.22265625 C30.02075257 45.73913686 30.57986439 49.15295594 30.8125 52.73828125 C30.87695312 53.475625 30.94140625 54.21296875 31.0078125 54.97265625 C31.61207012 67.94405327 28.99021 85.35169378 20.328125 95.47265625 C18.18091138 97.26569031 16.51967514 96.95778194 13.8125 96.73828125 C11.42441002 92.38783321 10.15506447 88.485114 9.25 83.61328125 C9.06232056 82.63693726 9.06232056 82.63693726 8.87084961 81.64086914 C8.08692194 77.49985083 7.46869062 73.34723901 6.875 69.17578125 C5.90245326 63.23686876 3.81310609 59.79604751 -0.375 55.48828125 C-5.81670281 52.10233284 -11.90225042 51.09246509 -18.2109375 52.2109375 C-23.91226587 53.7320429 -27.85680826 55.69512331 -31.125 60.73828125 C-36.10584783 69.38300697 -34.43184616 79.10511801 -32.375 88.42578125 C-32.00901596 90.16404174 -31.64313165 91.90232323 -31.27734375 93.640625 C-31.09413574 94.49382324 -30.91092773 95.34702148 -30.72216797 96.22607422 C-29.92470206 99.97307158 -29.18085238 103.73024748 -28.4375 107.48828125 C-28.19515625 108.7 -27.9528125 109.91171875 -27.703125 111.16015625 C-27.53296875 112.0109375 -27.3628125 112.86171875 -27.1875 113.73828125 C-29.1675 113.73828125 -31.1475 113.73828125 -33.1875 113.73828125 C-33.414375 112.68640625 -33.64125 111.63453125 -33.875 110.55078125 C-35.1277231 107.54545036 -36.00403687 106.82517143 -39 105.40625 C-41.29472423 104.61212668 -43.59033208 103.82055309 -45.88671875 103.03125 C-53.53421452 100.03560373 -57.62637879 94.87468483 -61.1796875 87.65625 C-67.83085713 68.39879375 -66.31332871 44.07791664 -57.50195312 25.81323242 C-51.1585078 13.46793568 -41.47352728 2.29603273 -28.1484375 -2.5625 C-18.66351183 -4.80234393 -8.82478457 -4.25651973 0 0 Z " fill="#494949" transform="translate(219.1875,78.26171875)"/>
<path d="M0 0 C9.99714941 -0.09298497 19.99419468 -0.16390896 29.99168968 -0.20724869 C34.63475273 -0.22805746 39.27751828 -0.25625132 43.92041016 -0.30175781 C48.40731322 -0.34545647 52.89393147 -0.36918749 57.38103104 -0.37950897 C59.08653873 -0.38685748 60.79203215 -0.40120675 62.49741745 -0.42292023 C82.54085174 -0.66779763 82.54085174 -0.66779763 90.09115601 5.7880249 C98.64022711 14.29219557 100.27197729 26.51881053 100.32128906 38.05639648 C99.92865975 61.85026341 92.95634977 91.44272838 76.6875 109.40625 C68.15501294 117.46471 58.7041593 120.50330771 47.15234375 120.29296875 C46.25504044 120.28872391 45.35773712 120.28447906 44.4332428 120.28010559 C41.60100757 120.26347363 38.76951576 120.22585197 35.9375 120.1875 C34.00326557 120.17243309 32.06901986 120.15874822 30.13476562 120.14648438 C25.42289589 120.11362112 20.71157345 120.06194841 16 120 C16.75211005 115.00559258 18.79857119 112.86579403 22.4375 109.5625 C39.75361468 92.99419721 51.7155273 69.80176319 55 46 C55.10957031 45.30132813 55.21914063 44.60265625 55.33203125 43.8828125 C56.11922492 37.8161733 56.04459249 31.75355103 56.0234375 25.6484375 C56.02089966 24.25564575 56.02089966 24.25564575 56.01831055 22.8347168 C56.01391521 20.55646838 56.00776197 18.27823902 56 16 C55.37439178 16.00444122 54.74878357 16.00888245 54.10421753 16.01345825 C47.58284798 16.05776395 41.06152132 16.08789655 34.54003906 16.10986328 C32.1074042 16.11991013 29.67478138 16.13354994 27.2421875 16.15087891 C23.74215723 16.17518467 20.24228688 16.18649644 16.7421875 16.1953125 C15.65759247 16.20563507 14.57299744 16.21595764 13.45553589 16.22659302 C8.24078401 16.22736486 3.87054313 16.12305726 -1 14 C-1.08379841 9.13969208 -0.83101637 4.80206689 0 0 Z " fill="#0078F6" transform="translate(610,599)"/>
<path d="M0 0 C14.089961 10.56747075 22.98682171 27.26526623 25.49609375 44.77734375 C26.66997306 59.96553601 27.89387873 78.84611808 17.46875 91.4765625 C12.43856524 96.11805116 6.23112606 101.7314505 -0.25 104.0625 C-2.5 103.6875 -2.5 103.6875 -4.25 103.0625 C-3.96056582 101.27047133 -3.66830221 99.47889965 -3.375 97.6875 C-3.19453125 96.58019531 -3.0140625 95.47289062 -2.828125 94.33203125 C-2.3522431 91.64072617 -1.76668072 89.02880812 -1.125 86.375 C0.53552445 78.11255175 1.66994334 67.034483 -1.9375 59.25 C-5.62933226 54.16125823 -9.07406972 51.43492895 -15.25 50.0625 C-22.25944168 49.35295529 -28.54332341 49.55976362 -34.25 54.0625 C-38.54373303 58.4456858 -39.94466316 61.36025443 -40.875 67.5625 C-41.10526088 68.97811102 -41.33706308 70.39347208 -41.5703125 71.80859375 C-41.68149414 72.51741699 -41.79267578 73.22624023 -41.90722656 73.95654297 C-43.20486762 81.92908694 -44.61982428 89.80214856 -48.25 97.0625 C-51.60446138 96.77497474 -53.15853218 96.13612044 -55.8125 94 C-66.34053733 81.31236526 -66.14831094 63.7394747 -65.25 48.0625 C-63.33916017 29.33455973 -54.86596422 12.65880329 -40.46875 0.56640625 C-27.84887133 -9.09927355 -13.16478006 -7.84823426 0 0 Z " fill="#494949" transform="translate(677.25,80.9375)"/>
<path d="M0 0 C2.58263997 3.87395996 1.9955637 5.37589368 1.375 9.9375 C1.2349353 10.97583984 1.2349353 10.97583984 1.09204102 12.03515625 C0.13771087 18.73989929 -1.18944829 25.37178184 -2.59033203 31.99584961 C-4.17836103 39.54089788 -5.17960252 46.67820252 -4.7421875 54.41015625 C-5.09514833 57.95580826 -6.57058402 60.74781523 -8 64 C-10.07209827 71.85555479 -11.14818855 79.80503098 -11.9375 87.875 C-12.59459614 94.57353214 -13.80002591 100.91459763 -15.46191406 107.43139648 C-17.11998356 114.08304445 -18.12024603 120.7899108 -19.04858398 127.57763672 C-19.16016846 128.38604004 -19.27175293 129.19444336 -19.38671875 130.02734375 C-19.48170654 130.74656006 -19.57669434 131.46577637 -19.67456055 132.20678711 C-20 134 -20 134 -21 136 C-24.96 136 -28.92 136 -33 136 C-31.64858145 124.14136154 -29.78194079 112.42894778 -27.69921875 100.6796875 C-27.37737438 98.84634915 -27.05591618 97.01294298 -26.7348175 95.17947388 C-25.89345214 90.38028665 -25.04768409 85.58188691 -24.20068359 80.78369141 C-22.8588844 73.17846041 -21.52365677 65.57207293 -20.18866348 57.96564484 C-19.70242158 55.19791827 -19.21465662 52.43046304 -18.72677612 49.6630249 C-17.26280181 41.34151931 -15.82302359 33.0179245 -14.47509766 24.67675781 C-14.35926866 23.96361231 -14.24343966 23.2504668 -14.12410069 22.51571083 C-13.59348708 19.2441209 -13.07097532 15.97183704 -12.56217957 12.69674683 C-12.38286392 11.58010651 -12.20354828 10.46346619 -12.01879883 9.31298828 C-11.86872879 8.35111603 -11.71865875 7.38924377 -11.56404114 6.39822388 C-11 4 -11 4 -9 1 C-6.03978327 -0.12284083 -3.14008766 -0.33053554 0 0 Z " fill="#0B4D9C" transform="translate(434,718)"/>
<path d="M0 0 C9.99714941 -0.09298497 19.99419468 -0.16390896 29.99168968 -0.20724869 C34.63475273 -0.22805746 39.27751828 -0.25625132 43.92041016 -0.30175781 C48.40731322 -0.34545647 52.89393147 -0.36918749 57.38103104 -0.37950897 C59.08653873 -0.38685748 60.79203215 -0.40120675 62.49741745 -0.42292023 C82.25246808 -0.66427435 82.25246808 -0.66427435 90.5078125 6.03515625 C91.04148437 6.70417969 91.57515625 7.37320313 92.125 8.0625 C92.68445313 8.73410156 93.24390625 9.40570312 93.8203125 10.09765625 C95 12 95 12 95 15 C75.02273214 15.82146246 55.05007225 16.12864636 35.05639648 16.17724609 C32.52139145 16.18407505 29.9863933 16.19432197 27.45141602 16.20800781 C23.84775253 16.22593062 20.244328 16.23016739 16.640625 16.23046875 C15.55440857 16.23761398 14.46819214 16.24475922 13.34906006 16.25212097 C8.171255 16.23658663 3.83791893 16.09826802 -1 14 C-1.08379841 9.13969208 -0.83101637 4.80206689 0 0 Z " fill="#10509D" transform="translate(610,599)"/>
</svg>
